<mxfile host="65bd71144e">
    <diagram id="ejY6PqSzhJjPZWZHB2s4" name="Página-1">
        <mxGraphModel dx="738" dy="825" grid="1" gridSize="5" guides="1" tooltips="1" connect="1" arrows="1" fold="1" page="1" pageScale="1" pageWidth="1169" pageHeight="827" math="0" shadow="0">
            <root>
                <mxCell id="0"/>
                <mxCell id="1" parent="0"/>
                <mxCell id="10" value="" style="rounded=0;whiteSpace=wrap;html=1;fillColor=none;" vertex="1" parent="1">
                    <mxGeometry x="90" y="80" width="680" height="510" as="geometry"/>
                </mxCell>
                <mxCell id="3" value="Sistemas de Inteligencia Artificiial" style="rounded=0;whiteSpace=wrap;html=1;" vertex="1" parent="1">
                    <mxGeometry x="100" y="90" width="660" height="40" as="geometry"/>
                </mxCell>
                <mxCell id="4" value="" style="rounded=0;whiteSpace=wrap;html=1;" vertex="1" parent="1">
                    <mxGeometry x="100" y="144" width="660" height="86" as="geometry"/>
                </mxCell>
                <mxCell id="5" value="" style="rounded=0;whiteSpace=wrap;html=1;" vertex="1" parent="1">
                    <mxGeometry x="100" y="240" width="280" height="150" as="geometry"/>
                </mxCell>
                <mxCell id="7" value="" style="rounded=0;whiteSpace=wrap;html=1;" vertex="1" parent="1">
                    <mxGeometry x="390" y="240" width="290" height="150" as="geometry"/>
                </mxCell>
                <mxCell id="8" value="Recursos&amp;nbsp; de datos y Big Data - La nube y computación en el borde" style="rounded=0;whiteSpace=wrap;html=1;" vertex="1" parent="1">
                    <mxGeometry x="100" y="400" width="660" height="30" as="geometry"/>
                </mxCell>
                <mxCell id="9" value="" style="rounded=0;whiteSpace=wrap;html=1;" vertex="1" parent="1">
                    <mxGeometry x="100" y="439" width="660" height="140" as="geometry"/>
                </mxCell>
                <mxCell id="11" value="Funciones de IA" style="text;html=1;strokeColor=none;fillColor=none;align=center;verticalAlign=middle;whiteSpace=wrap;rounded=0;" vertex="1" parent="1">
                    <mxGeometry x="110" y="146" width="120" height="30" as="geometry"/>
                </mxCell>
                <mxCell id="12" value="Decisión" style="rounded=0;whiteSpace=wrap;html=1;fillColor=default;" vertex="1" parent="1">
                    <mxGeometry x="130" y="174" width="600" height="20" as="geometry"/>
                </mxCell>
                <mxCell id="13" value="Razonamiento" style="rounded=0;whiteSpace=wrap;html=1;fillColor=default;" vertex="1" parent="1">
                    <mxGeometry x="130" y="200" width="600" height="20" as="geometry"/>
                </mxCell>
                <mxCell id="14" value="Machine Learning" style="text;html=1;strokeColor=none;fillColor=none;align=center;verticalAlign=middle;whiteSpace=wrap;rounded=0;" vertex="1" parent="1">
                    <mxGeometry x="110" y="243" width="120" height="30" as="geometry"/>
                </mxCell>
                <mxCell id="15" value="Ingenieria" style="text;html=1;strokeColor=none;fillColor=none;align=center;verticalAlign=middle;whiteSpace=wrap;rounded=0;" vertex="1" parent="1">
                    <mxGeometry x="385" y="243" width="90" height="30" as="geometry"/>
                </mxCell>
                <mxCell id="16" value="" style="rounded=0;whiteSpace=wrap;html=1;fillColor=default;rotation=-90;" vertex="1" parent="1">
                    <mxGeometry x="647.5" y="277.5" width="150" height="75" as="geometry"/>
                </mxCell>
                <mxCell id="17" value="Computacionales" style="rounded=0;whiteSpace=wrap;html=1;fillColor=default;" vertex="1" parent="1">
                    <mxGeometry x="120" y="466" width="200" height="40" as="geometry"/>
                </mxCell>
                <mxCell id="24" value="Almacenamiento" style="rounded=0;whiteSpace=wrap;html=1;fillColor=default;" vertex="1" parent="1">
                    <mxGeometry x="330" y="466" width="200" height="40" as="geometry"/>
                </mxCell>
                <mxCell id="25" value="Redes" style="rounded=0;whiteSpace=wrap;html=1;fillColor=default;" vertex="1" parent="1">
                    <mxGeometry x="540" y="466" width="200" height="40" as="geometry"/>
                </mxCell>
                <mxCell id="26" value="Manejo de recursos" style="rounded=0;whiteSpace=wrap;html=1;fillColor=default;" vertex="1" parent="1">
                    <mxGeometry x="120" y="516" width="620" height="20" as="geometry"/>
                </mxCell>
                <mxCell id="27" value="Provisión de recursos" style="rounded=0;whiteSpace=wrap;html=1;fillColor=default;" vertex="1" parent="1">
                    <mxGeometry x="120" y="546" width="620" height="20" as="geometry"/>
                </mxCell>
                <mxCell id="28" value="Piscinas de Recursos" style="text;html=1;strokeColor=none;fillColor=none;align=center;verticalAlign=middle;whiteSpace=wrap;rounded=0;" vertex="1" parent="1">
                    <mxGeometry x="360" y="440" width="140" height="30" as="geometry"/>
                </mxCell>
                <mxCell id="29" value="Otras tecnologias: Algoritmos evolutivos, inteligencia de enjambre, etc." style="text;html=1;strokeColor=none;fillColor=none;align=center;verticalAlign=middle;whiteSpace=wrap;rounded=0;rotation=-90;" vertex="1" parent="1">
                    <mxGeometry x="651.25" y="277.18" width="146.25" height="75.32" as="geometry"/>
                </mxCell>
                <mxCell id="30" value="Modelo" style="rounded=0;whiteSpace=wrap;html=1;fillColor=default;" vertex="1" parent="1">
                    <mxGeometry x="120" y="270" width="240" height="23" as="geometry"/>
                </mxCell>
                <mxCell id="31" value="Tarea" style="rounded=0;whiteSpace=wrap;html=1;fillColor=default;" vertex="1" parent="1">
                    <mxGeometry x="120" y="299.5" width="240" height="23" as="geometry"/>
                </mxCell>
                <mxCell id="32" value="Conocimiento Procedural" style="rounded=0;whiteSpace=wrap;html=1;fillColor=default;" vertex="1" parent="1">
                    <mxGeometry x="407.5" y="270" width="240" height="23" as="geometry"/>
                </mxCell>
                <mxCell id="33" value="Conocimiento Declarativo" style="rounded=0;whiteSpace=wrap;html=1;fillColor=default;" vertex="1" parent="1">
                    <mxGeometry x="407.5" y="299.5" width="240" height="23" as="geometry"/>
                </mxCell>
                <mxCell id="35" value="Herramientas y técnicas de software" style="rounded=0;whiteSpace=wrap;html=1;fillColor=default;" vertex="1" parent="1">
                    <mxGeometry x="407.5" y="329.5" width="240" height="50.5" as="geometry"/>
                </mxCell>
                <mxCell id="37" value="Datos para Machine Learning" style="rounded=0;whiteSpace=wrap;html=1;fillColor=default;" vertex="1" parent="1">
                    <mxGeometry x="120" y="329.5" width="115" height="50.5" as="geometry"/>
                </mxCell>
                <mxCell id="39" value="Herramientas y técnicas de software" style="rounded=0;whiteSpace=wrap;html=1;fillColor=default;" vertex="1" parent="1">
                    <mxGeometry x="240" y="329.5" width="120" height="50.5" as="geometry"/>
                </mxCell>
            </root>
        </mxGraphModel>
    </diagram>
</mxfile>